<svg xmlns="http://www.w3.org/2000/svg" xmlns:xlink="http://www.w3.org/1999/xlink" viewBox="0 0 100 125" version="1.1" x="0px" y="0px"><title>Profile 0.4</title><desc>Created with Sketch.</desc><g stroke="none" stroke-width="1" fill="none" fill-rule="evenodd"><g fill-rule="nonzero" fill="#000000"><path d="M68,70 C68,71.1045695 67.1045695,72 66,72 C64.8954305,72 64,71.1045695 64,70 C64,62.2680135 57.7319865,56 50,56 C42.2680135,56 36,62.2680135 36,70 C36,71.1045695 35.1045695,72 34,72 C32.8954305,72 32,71.1045695 32,70 C32,60.0588745 40.0588745,52 50,52 C59.9411255,52 68,60.0588745 68,70 Z M50,50 C43.9248678,50 39,45.0751322 39,39 C39,32.9248678 43.9248678,28 50,28 C56.0751322,28 61,32.9248678 61,39 C61,45.0751322 56.0751322,50 50,50 Z M50,46 C53.8659932,46 57,42.8659932 57,39 C57,35.1340068 53.8659932,32 50,32 C46.1340068,32 43,35.1340068 43,39 C43,42.8659932 46.1340068,46 50,46 Z"/></g></g><text x="0" y="115" fill="#000000" font-size="5px" font-weight="bold" font-family="'Helvetica Neue', Helvetica, Arial-Unicode, Arial, Sans-serif">Created by Landan Lloyd</text><text x="0" y="120" fill="#000000" font-size="5px" font-weight="bold" font-family="'Helvetica Neue', Helvetica, Arial-Unicode, Arial, Sans-serif">from the Noun Project</text></svg>